<svg width="76" height="80" viewBox="0 0 76 80" fill="none" xmlns="http://www.w3.org/2000/svg">
<g filter="url(#filter0_d_139_5505)">
<rect x="20" y="18" width="40" height="40" rx="20" fill="#4B9DF7" shape-rendering="crispEdges"/>
<mask id="mask0_139_5505" style="mask-type:alpha" maskUnits="userSpaceOnUse" x="28" y="26" width="24" height="24">
<rect x="52" y="50" width="24" height="24" transform="rotate(-180 52 50)" fill="#D9D9D9"/>
</mask>
<g mask="url(#mask0_139_5505)">
<path d="M39.9921 34C40.1593 34 40.3161 34.0256 40.4624 34.0768C40.6088 34.1272 40.7446 34.2133 40.87 34.3352L46.6707 39.9724C46.9006 40.1959 47.0101 40.4754 46.9993 40.811C46.9892 41.1458 46.8692 41.4249 46.6393 41.6484C46.4094 41.8718 46.1167 41.9835 45.7614 41.9835C45.406 41.9835 45.1134 41.8718 44.8834 41.6484L39.9921 36.8948L35.0694 41.6788C34.8395 41.9023 34.5519 42.0091 34.2065 41.9994C33.862 41.9888 33.5748 41.8718 33.3449 41.6484C33.115 41.4249 33 41.1405 33 40.7952C33 40.4498 33.115 40.1654 33.3449 39.942L39.1142 34.3352C39.2396 34.2133 39.3755 34.1272 39.5218 34.0768C39.6681 34.0256 39.8249 34 39.9921 34Z" fill="white"/>
</g>
</g>
<defs>
<filter id="filter0_d_139_5505" x="0" y="0" width="80" height="80" filterUnits="userSpaceOnUse" color-interpolation-filters="sRGB">
<feFlood flood-opacity="0" result="BackgroundImageFix"/>
<feColorMatrix in="SourceAlpha" type="matrix" values="0 0 0 0 0 0 0 0 0 0 0 0 0 0 0 0 0 0 127 0" result="hardAlpha"/>
<feOffset dy="2"/>
<feGaussianBlur stdDeviation="10"/>
<feComposite in2="hardAlpha" operator="out"/>
<feColorMatrix type="matrix" values="0 0 0 0 0 0 0 0 0 0 0 0 0 0 0 0 0 0 0.1 0"/>
<feBlend mode="normal" in2="BackgroundImageFix" result="effect1_dropShadow_139_5505"/>
<feBlend mode="normal" in="SourceGraphic" in2="effect1_dropShadow_139_5505" result="shape"/>
</filter>
</defs>
</svg>
